<?xml version="1.0" encoding="utf-8"?>
<svg xmlns="http://www.w3.org/2000/svg" viewBox="2 2 191 66" width="191" height="66">
<path fill-rule="evenodd" clip-rule="evenodd" fill="#A11E3B" d="M139.13,2.989c0.438-0.005,1.4-0.078,2.172,0.708
	c0.773,0.787,0.816,1.763,0.816,2.243c0,1.339-1.1,2.343-2.513,2.343c-0.584,0-1.228-0.1-1.44-0.228
	c-0.07-0.043-0.099-0.1-0.099-0.17V3.244c0-0.085,0.042-0.142,0.112-0.17C138.322,3.031,138.704,2.994,139.13,2.989 M140.775,8.418
	c1.48-0.406,2.479-1.644,2.479-3.321c0-0.773-0.408-1.429-0.728-1.734c-0.232-0.218-0.889-0.83-2.709-0.83
	c-0.67,0-1.905,0.045-2.291,0.045c-0.167,0-0.966-0.043-1.604-0.043c-0.155,0-0.227,0.029-0.227,0.114
	c0,0.057,0.057,0.085,0.114,0.085c0.128,0,0.369,0.015,0.481,0.043c0.47,0.1,0.583,0.326,0.611,0.809
	c0.027,0.454,0.027,0.852,0.027,3.065v2.499c0,1.362,0,2.483-0.069,3.08c-0.059,0.411-0.129,0.724-0.412,0.78
	c-0.129,0.028-0.299,0.057-0.426,0.057c-0.085,0-0.113,0.042-0.113,0.085c0,0.086,0.07,0.113,0.227,0.113
	c0.425,0,1.319-0.042,1.334-0.042c0.07,0,0.964,0.042,1.745,0.042c0.156,0,0.229-0.042,0.229-0.113c0-0.043-0.029-0.085-0.114-0.085
	c-0.129,0-0.44-0.028-0.639-0.057c-0.426-0.057-0.512-0.369-0.555-0.78c-0.069-0.597-0.069-1.718-0.069-3.08V8.808
	c0-0.07,0.028-0.113,0.099-0.113l1.378,0.022c0.085,0,0.16,0.033,0.188,0.091c0.214,0.473,0.513,1.27,0.941,2.148
	c0.587,1.202,0.688,1.733,1.298,2.061c0.369,0.199,0.756,0.248,1.551,0.248h0.684c0.256,0,0.342-0.027,0.342-0.113
	c0-0.043-0.058-0.087-0.129-0.085c-0.14,0.003-0.375-0.036-0.645-0.084c-0.23-0.04-0.902-0.203-1.316-0.98
	C141.938,11.03,141.341,9.615,140.775,8.418 M147.781,6.65c0-2.214,0-2.611,0.027-3.065c0.028-0.497,0.142-0.737,0.554-0.809
	c0.171-0.028,0.369-0.043,0.468-0.043c0.057,0,0.112-0.028,0.112-0.085c0-0.085-0.069-0.114-0.226-0.114
	c-0.427,0-1.462,0.044-1.532,0.044c-0.072,0-0.966-0.044-1.604-0.044c-0.157,0-0.228,0.029-0.228,0.114
	c0,0.057,0.057,0.085,0.113,0.085c0.129,0,0.369,0.015,0.483,0.043c0.468,0.1,0.582,0.326,0.609,0.809
	c0.029,0.454,0.029,0.852,0.029,3.065v2.499c0,1.362,0,2.483-0.071,3.08c-0.057,0.411-0.128,0.724-0.411,0.78
	c-0.128,0.028-0.298,0.057-0.426,0.057c-0.085,0-0.114,0.042-0.114,0.085c0,0.086,0.072,0.113,0.228,0.113
	c0.213,0,0.525-0.014,0.809-0.027c0.284,0,0.526-0.015,0.583-0.015c0.41,0,0.852,0.015,1.448,0.042
	c0.595,0.015,1.333,0.043,2.354,0.043c0.752,0,0.795-0.057,0.894-0.384c0.114-0.412,0.214-1.263,0.214-1.418
	c0-0.157-0.014-0.214-0.084-0.214c-0.086,0-0.114,0.071-0.13,0.185c-0.043,0.27-0.185,0.625-0.369,0.852
	c-0.34,0.412-0.965,0.426-1.718,0.426c-1.105,0-1.475-0.1-1.702-0.326c-0.255-0.256-0.311-1.164-0.311-3.251V6.65z M155.006,13.464
	c0.767,0,1.532-0.171,2.143-0.596c0.979-0.696,1.206-1.774,1.206-2.356c0-1.136-0.396-2.016-2.072-3.335l-0.396-0.313
	c-1.362-1.065-1.731-1.576-1.731-2.386c0-1.036,0.766-1.646,1.745-1.646c1.307,0,1.689,0.597,1.774,0.752
	c0.085,0.156,0.169,0.539,0.186,0.71c0.013,0.113,0.028,0.184,0.114,0.184c0.069,0,0.099-0.098,0.099-0.325
	c0-0.966,0.056-1.435,0.056-1.505s-0.028-0.1-0.142-0.1c-0.114,0-0.228-0.015-0.497-0.07c-0.354-0.085-0.767-0.143-1.32-0.143
	c-1.803,0-2.938,1.036-2.938,2.555c0,0.966,0.342,1.846,1.848,3.08l0.639,0.525c1.218,1.008,1.631,1.576,1.631,2.555
	c0,0.909-0.667,1.888-2.031,1.888c-0.95,0-1.887-0.397-2.099-1.448c-0.044-0.198-0.044-0.396-0.044-0.524
	c0-0.114-0.014-0.156-0.099-0.156c-0.071,0-0.1,0.071-0.114,0.227c-0.014,0.228-0.07,0.795-0.07,1.505
	c0,0.383,0.015,0.44,0.212,0.54C153.686,13.364,154.338,13.464,155.006,13.464 M127.632,13.265c0.127,0,0.213-0.028,0.213-0.113
	c0-0.058-0.042-0.085-0.143-0.085h-0.142c-0.24,0-0.539-0.128-0.539-0.412c0-0.255,0.071-0.596,0.198-0.951l0.853-2.512
	c0.028-0.07,0.069-0.114,0.142-0.114h3.051c0.072,0,0.1,0.029,0.129,0.086l1.318,3.491c0.086,0.228,0,0.355-0.084,0.384
	c-0.056,0.015-0.1,0.043-0.1,0.1c0,0.085,0.156,0.085,0.427,0.099c0.979,0.028,2.015,0.028,2.228,0.028
	c0.156,0,0.284-0.028,0.284-0.113c0-0.07-0.058-0.085-0.142-0.085c-0.143,0-0.355-0.014-0.569-0.085
	c-0.298-0.086-0.71-0.313-1.22-1.575c-0.866-2.158-3.094-8.02-3.308-8.56c-0.17-0.439-0.227-0.511-0.312-0.511
	s-0.143,0.085-0.313,0.554l-3.221,8.813c-0.213,0.59-0.444,1.061-0.89,1.253c-0.37-0.124-0.739-0.406-1.208-0.932
	c-1.066-1.198-3.283-4.028-3.81-4.748c0.299-0.356,2.784-2.783,3.139-3.123c0.639-0.611,0.951-0.966,1.534-1.221
	c0.283-0.128,0.581-0.199,0.794-0.199c0.113,0,0.143-0.028,0.143-0.1c0-0.07-0.057-0.1-0.214-0.1c-0.355,0-1.291,0.044-1.361,0.044
	c-0.342,0-0.781-0.044-1.065-0.044c-0.099,0-0.17,0.029-0.17,0.1c0,0.057,0.056,0.085,0.128,0.114
	c0.113,0.042,0.184,0.128,0.184,0.298c0,0.241-0.369,0.61-0.766,1.021c-0.512,0.554-3.081,3.165-3.32,3.435l-0.058-0.852
	c0-2.214,0-2.611,0.027-3.065c0.03-0.497,0.143-0.738,0.525-0.809c0.171-0.028,0.256-0.043,0.356-0.043
	c0.057,0,0.112-0.028,0.112-0.085c0-0.085-0.071-0.114-0.228-0.114c-0.425,0-1.248,0.044-1.376,0.044
	c-0.085,0-0.923-0.044-1.562-0.044c-0.156,0-0.228,0.029-0.228,0.114c0,0.057,0.058,0.085,0.114,0.085
	c0.127,0,0.369,0.015,0.482,0.043c0.468,0.1,0.581,0.326,0.61,0.809c0.028,0.454,0.028,0.852,0.028,3.065v2.499
	c0,1.362,0,2.483-0.07,3.08c-0.058,0.411-0.128,0.724-0.413,0.78c-0.128,0.028-0.298,0.057-0.425,0.057
	c-0.086,0-0.114,0.042-0.114,0.085c0,0.085,0.071,0.113,0.229,0.113c0.425,0,1.248-0.042,1.362-0.042
	c0.113,0,0.937,0.042,1.632,0.042c0.155,0,0.227-0.042,0.227-0.113c0-0.043-0.028-0.085-0.112-0.085
	c-0.129,0-0.356-0.028-0.555-0.057c-0.426-0.057-0.511-0.369-0.554-0.78c-0.07-0.597-0.07-1.718-0.07-3.08l0.007-1.381
	c0.319,0.442,1.632,2.193,2.501,3.293c0.755,0.956,1.319,1.632,1.925,1.966c0.259,0.141,0.392,0.24,1.051,0.24
	c0,0,0.933-0.047,1.43-0.047C126.829,13.221,127.291,13.265,127.632,13.265 M128.369,8.567c-0.042,0-0.07-0.029-0.042-0.1
	l1.249-3.833c0.07-0.212,0.143-0.212,0.214,0l1.347,3.833c0.015,0.057,0.015,0.1-0.057,0.1H128.369z M82.699,11.703
	c-0.256,0.71-0.54,1.25-1.192,1.335c-0.113,0.015-0.313,0.028-0.412,0.028c-0.07,0-0.127,0.027-0.127,0.085
	c0,0.086,0.085,0.113,0.27,0.113c0.667,0,1.447-0.042,1.604-0.042c0.157,0,0.767,0.042,1.107,0.042c0.127,0,0.213-0.027,0.213-0.113
	c0-0.058-0.042-0.085-0.142-0.085h-0.143c-0.241,0-0.539-0.128-0.539-0.412c0-0.255,0.07-0.596,0.199-0.951l0.852-2.512
	c0.027-0.07,0.07-0.114,0.141-0.114h3.053c0.071,0,0.099,0.029,0.127,0.086l1.32,3.491c0.085,0.228,0,0.355-0.085,0.384
	c-0.057,0.015-0.1,0.043-0.1,0.1c0,0.085,0.157,0.085,0.427,0.1c0.979,0.027,2.015,0.027,2.228,0.027
	c0.156,0,0.284-0.027,0.284-0.113c0-0.07-0.057-0.085-0.143-0.085c-0.142,0-0.354-0.014-0.567-0.085
	c-0.299-0.086-0.71-0.313-1.221-1.575c-0.866-2.158-3.095-8.02-3.308-8.559c-0.169-0.44-0.226-0.512-0.312-0.512
	c-0.085,0-0.143,0.085-0.313,0.554L82.699,11.703z M84.686,8.567c-0.042,0-0.07-0.029-0.042-0.1l1.25-3.833
	c0.069-0.212,0.141-0.212,0.213,0l1.347,3.833c0.015,0.057,0.015,0.1-0.056,0.1H84.686z M63.874,2.989
	c0.439-0.005,1.402-0.078,2.173,0.708c0.772,0.787,0.815,1.763,0.815,2.243c0,1.339-1.1,2.343-2.512,2.343
	c-0.584,0-1.229-0.1-1.441-0.228c-0.071-0.043-0.099-0.1-0.099-0.17V3.244c0-0.085,0.042-0.142,0.113-0.17
	C63.065,3.031,63.448,2.994,63.874,2.989 M65.519,8.418c1.482-0.406,2.48-1.644,2.48-3.321c0-0.773-0.408-1.429-0.729-1.734
	c-0.232-0.218-0.889-0.83-2.708-0.83c-0.671,0-1.906,0.045-2.292,0.045c-0.167,0-0.965-0.043-1.604-0.043
	c-0.155,0-0.226,0.029-0.226,0.114c0,0.057,0.056,0.085,0.113,0.085c0.127,0,0.368,0.015,0.481,0.043
	c0.469,0.1,0.583,0.326,0.611,0.809c0.028,0.454,0.028,0.852,0.028,3.065v2.499c0,1.362,0,2.483-0.071,3.08
	c-0.057,0.411-0.127,0.724-0.412,0.78c-0.128,0.028-0.297,0.057-0.426,0.057c-0.085,0-0.113,0.042-0.113,0.085
	c0,0.086,0.071,0.113,0.228,0.113c0.426,0,1.319-0.042,1.334-0.042c0.071,0,0.965,0.042,1.746,0.042
	c0.155,0,0.227-0.042,0.227-0.113c0-0.043-0.027-0.085-0.113-0.085c-0.127,0-0.44-0.028-0.639-0.057
	c-0.426-0.057-0.511-0.369-0.554-0.78c-0.07-0.597-0.07-1.718-0.07-3.08V8.808c0-0.07,0.027-0.113,0.099-0.113l1.377,0.022
	c0.086,0,0.162,0.033,0.188,0.091c0.216,0.473,0.515,1.27,0.943,2.148c0.586,1.202,0.688,1.733,1.298,2.061
	c0.369,0.199,0.756,0.248,1.551,0.248h0.684c0.256,0,0.342-0.027,0.342-0.113c0-0.043-0.057-0.087-0.128-0.085
	c-0.141,0.003-0.376-0.036-0.646-0.084c-0.229-0.04-0.901-0.203-1.316-0.98C66.683,11.03,66.086,9.615,65.519,8.418 M102.369,9.149
	c0,1.362,0,2.483-0.071,3.08c-0.057,0.411-0.128,0.724-0.412,0.78c-0.128,0.028-0.297,0.057-0.425,0.057
	c-0.085,0-0.114,0.042-0.114,0.085c0,0.086,0.071,0.113,0.227,0.113c0.213,0,0.539-0.027,0.824-0.027
	c0.297-0.015,0.539-0.015,0.566-0.015c0.072,0,0.555,0.042,1.179,0.085c0.611,0.043,1.363,0.085,1.974,0.085
	c2.412,0,3.689-0.993,4.3-1.633c0.795-0.836,1.533-2.214,1.533-4.001c0-1.69-0.667-2.868-1.377-3.605
	c-1.688-1.746-4.286-1.619-5.691-1.619c-0.852,0-1.746,0.044-1.917,0.044c-0.07,0-0.965-0.044-1.604-0.044
	c-0.156,0-0.227,0.029-0.227,0.114c0,0.057,0.057,0.085,0.113,0.085c0.129,0,0.369,0.015,0.482,0.043
	c0.469,0.1,0.582,0.326,0.611,0.809c0.028,0.454,0.028,0.852,0.028,3.065V9.149z M103.561,6.424c0-1.093,0-2.541,0.016-3.023
	c0-0.156,0.041-0.228,0.169-0.283c0.114-0.057,0.639-0.1,0.923-0.1c1.689,0,3.307,0.198,4.642,1.604
	c0.582,0.61,1.362,1.774,1.362,3.577c0,1.306-0.397,2.668-1.136,3.392c-0.838,0.838-2.058,1.321-3.378,1.321
	c-1.674,0-2.229-0.299-2.413-0.569c-0.112-0.155-0.142-0.724-0.155-1.078c-0.014-0.27-0.029-1.575-0.029-3.08V6.424z M95.334,2.989
	c0.438-0.005,1.401-0.078,2.173,0.708c0.772,0.787,0.815,1.763,0.815,2.243c0,1.339-1.101,2.343-2.513,2.343
	c-0.583,0-1.228-0.1-1.44-0.228c-0.071-0.043-0.1-0.1-0.1-0.17V3.244c0-0.085,0.043-0.142,0.114-0.17
	C94.525,3.031,94.909,2.994,95.334,2.989 M96.979,8.418c1.483-0.406,2.479-1.644,2.479-3.321c0-0.773-0.407-1.429-0.727-1.734
	c-0.234-0.218-0.889-0.83-2.71-0.83c-0.669,0-1.905,0.045-2.29,0.045c-0.168,0-0.966-0.043-1.605-0.043
	c-0.155,0-0.227,0.029-0.227,0.114c0,0.057,0.058,0.085,0.114,0.085c0.127,0,0.369,0.015,0.482,0.043
	c0.468,0.1,0.581,0.326,0.609,0.809c0.029,0.454,0.029,0.852,0.029,3.065v2.499c0,1.362,0,2.483-0.071,3.08
	c-0.057,0.411-0.128,0.724-0.411,0.78c-0.128,0.028-0.299,0.057-0.426,0.057c-0.086,0-0.114,0.042-0.114,0.085
	c0,0.086,0.071,0.113,0.228,0.113c0.426,0,1.319-0.042,1.335-0.042c0.069,0,0.965,0.042,1.745,0.042
	c0.156,0,0.227-0.042,0.227-0.113c0-0.043-0.028-0.085-0.113-0.085c-0.128,0-0.44-0.028-0.639-0.057
	c-0.426-0.057-0.511-0.369-0.554-0.78c-0.071-0.597-0.071-1.718-0.071-3.08V8.808c0-0.07,0.028-0.113,0.1-0.113l1.378,0.022
	c0.084,0,0.16,0.033,0.188,0.091c0.215,0.473,0.513,1.27,0.943,2.148c0.585,1.202,0.687,1.733,1.297,2.061
	c0.368,0.199,0.756,0.248,1.551,0.248h0.686c0.254,0,0.339-0.027,0.339-0.113c0-0.043-0.057-0.087-0.127-0.085
	c-0.141,0.003-0.376-0.036-0.646-0.084c-0.229-0.04-0.9-0.203-1.317-0.98C98.143,11.03,97.545,9.615,96.979,8.418 M79.32,6.65
	c0-2.214,0-2.611,0.028-3.065c0.028-0.497,0.142-0.737,0.525-0.809c0.17-0.028,0.255-0.043,0.354-0.043
	c0.057,0,0.113-0.028,0.113-0.085c0-0.085-0.071-0.114-0.228-0.114c-0.426,0-1.319,0.044-1.391,0.044
	c-0.07,0-0.965-0.044-1.604-0.044c-0.156,0-0.228,0.029-0.228,0.114c0,0.057,0.057,0.085,0.114,0.085
	c0.127,0,0.369,0.015,0.481,0.043c0.469,0.1,0.583,0.326,0.611,0.809c0.028,0.454,0.028,0.852,0.028,3.065v0.299
	c0,0.07-0.043,0.085-0.086,0.085h-6.018c-0.043,0-0.085-0.015-0.085-0.085V6.65c0-2.214,0-2.611,0.028-3.065
	c0.028-0.497,0.143-0.737,0.525-0.809c0.17-0.028,0.256-0.043,0.354-0.043c0.058,0,0.114-0.028,0.114-0.085
	c0-0.085-0.072-0.114-0.229-0.114c-0.426,0-1.318,0.044-1.391,0.044c-0.07,0-0.965-0.044-1.604-0.044
	c-0.156,0-0.227,0.029-0.227,0.114c0,0.057,0.057,0.085,0.113,0.085c0.128,0,0.369,0.015,0.482,0.043
	c0.469,0.1,0.582,0.326,0.61,0.809c0.028,0.454,0.028,0.852,0.028,3.065v2.499c0,1.362,0,2.483-0.071,3.08
	c-0.057,0.411-0.127,0.724-0.411,0.78c-0.128,0.028-0.298,0.057-0.426,0.057c-0.085,0-0.113,0.042-0.113,0.085
	c0,0.086,0.071,0.113,0.227,0.113c0.426,0,1.32-0.042,1.391-0.042c0.072,0,0.965,0.042,1.746,0.042c0.156,0,0.228-0.042,0.228-0.113
	c0-0.043-0.028-0.085-0.114-0.085c-0.127,0-0.439-0.028-0.639-0.057c-0.426-0.057-0.51-0.369-0.554-0.78
	c-0.07-0.597-0.07-1.718-0.07-3.08V7.658c0-0.07,0.042-0.085,0.085-0.085h6.018c0.043,0,0.086,0.028,0.086,0.085v1.491
	c0,1.362,0,2.483-0.07,3.08c-0.058,0.411-0.128,0.724-0.412,0.78c-0.128,0.028-0.299,0.057-0.427,0.057
	c-0.085,0-0.113,0.042-0.113,0.085c0,0.086,0.071,0.113,0.228,0.113c0.426,0,1.32-0.042,1.391-0.042
	c0.071,0,0.965,0.042,1.747,0.042c0.155,0,0.226-0.042,0.226-0.113c0-0.043-0.028-0.085-0.112-0.085c-0.129,0-0.44-0.028-0.64-0.057
	c-0.426-0.057-0.511-0.369-0.554-0.78c-0.07-0.597-0.07-1.718-0.07-3.08V6.65z M46.516,7.658c0-0.07,0.027-0.099,0.085-0.099
	c0.213,0,0.922,0,1.107,0.028c0.34,0.043,0.695,0.085,1.177,0.412c1.094,0.752,1.378,1.986,1.378,2.838
	c0,1.604-1.235,2.016-2.002,2.016c-0.255,0-0.865-0.028-1.249-0.213c-0.439-0.213-0.439-0.411-0.482-1.107
	c-0.014-0.213-0.014-1.973-0.014-3.065V7.658z M46.516,3.159c0-0.085,0.042-0.128,0.17-0.156c0.228-0.057,0.525-0.07,0.681-0.07
	c1.392,0,1.917,1.263,1.917,2.441c0,0.582-0.213,1.092-0.511,1.434c-0.299,0.34-0.497,0.369-1.292,0.369
	c-0.525,0-0.781-0.043-0.866-0.058c-0.071-0.028-0.099-0.057-0.099-0.156V3.159z M45.38,9.149c0,1.362,0,2.483-0.071,3.08
	c-0.057,0.411-0.127,0.724-0.412,0.78c-0.127,0.028-0.297,0.057-0.426,0.057c-0.085,0-0.112,0.042-0.112,0.085
	c0,0.086,0.07,0.113,0.227,0.113c0.213,0,0.54-0.027,0.823-0.027c0.298-0.015,0.539-0.015,0.567-0.015
	c0.058,0,0.454,0.015,0.866,0.042c0.411,0.015,0.866,0.043,1.022,0.043c2.426,0,3.619-1.575,3.619-3.095
	c0-1.66-1.405-2.667-2.456-2.994c0.667-0.695,1.334-1.391,1.334-2.556c0-0.709-0.511-2.129-2.839-2.129
	c-0.652,0-1.206,0.044-1.547,0.044c-0.07,0-0.965-0.044-1.604-0.044c-0.156,0-0.228,0.029-0.228,0.114
	c0,0.057,0.057,0.085,0.114,0.085c0.127,0,0.368,0.015,0.481,0.043c0.47,0.1,0.583,0.326,0.611,0.809
	C45.38,4.039,45.38,4.437,45.38,6.65V9.149z M37.294,9.149c0,1.362,0,2.483-0.07,3.08c-0.057,0.411-0.128,0.724-0.412,0.78
	c-0.128,0.028-0.298,0.057-0.426,0.057c-0.085,0-0.113,0.042-0.113,0.085c0,0.086,0.071,0.113,0.227,0.113
	c0.213,0,0.539-0.027,0.823-0.027c0.298-0.015,0.54-0.015,0.567-0.015c0.213,0,0.555,0.015,1.107,0.042
	c0.554,0.015,1.334,0.043,2.399,0.043c0.553,0,0.667,0,0.766-0.369c0.071-0.298,0.185-1.263,0.185-1.377
	c0-0.099,0-0.213-0.085-0.213c-0.07,0-0.1,0.058-0.128,0.213c-0.099,0.582-0.27,0.866-0.638,1.022
	c-0.369,0.156-0.994,0.156-1.363,0.156c-1.391,0-1.604-0.185-1.646-1.164c-0.014-0.298,0-1.944,0-2.427V7.9
	c0-0.058,0.028-0.1,0.099-0.1c0.242,0,1.647,0.028,2.03,0.07c0.554,0.058,0.682,0.299,0.738,0.497
	c0.057,0.185,0.057,0.326,0.057,0.469c0,0.07,0.028,0.128,0.1,0.128c0.1,0,0.1-0.157,0.1-0.271c0-0.1,0.027-0.624,0.057-0.908
	c0.042-0.468,0.113-0.709,0.113-0.795c0-0.084-0.028-0.113-0.071-0.113c-0.056,0-0.113,0.071-0.212,0.185
	c-0.129,0.142-0.327,0.17-0.668,0.198c-0.326,0.028-2.072,0.028-2.257,0.028c-0.07,0-0.085-0.042-0.085-0.142V3.23
	c0-0.1,0.028-0.143,0.085-0.143c0.156,0,1.704,0.015,1.944,0.043c0.768,0.085,0.909,0.256,1.008,0.482
	c0.071,0.171,0.086,0.412,0.086,0.511c0,0.114,0.027,0.185,0.113,0.185c0.057,0,0.085-0.085,0.1-0.155
	c0.028-0.171,0.057-0.795,0.07-0.938c0.043-0.397,0.114-0.567,0.114-0.667c0-0.07-0.015-0.128-0.058-0.128
	c-0.07,0-0.127,0.058-0.198,0.07c-0.114,0.029-0.341,0.058-0.61,0.072c-0.326,0.015-3.151,0.015-3.251,0.015l-0.581-0.029
	c-0.313-0.015-0.695-0.015-1.022-0.015c-0.155,0-0.227,0.029-0.227,0.114c0,0.057,0.057,0.085,0.113,0.085
	c0.128,0,0.369,0.015,0.482,0.043c0.469,0.1,0.582,0.326,0.61,0.809c0.028,0.454,0.028,0.852,0.028,3.065V9.149z M54.173,9.149
	c0,1.362,0,2.483-0.07,3.08c-0.057,0.411-0.128,0.724-0.412,0.78c-0.128,0.028-0.298,0.057-0.426,0.057
	c-0.085,0-0.113,0.042-0.113,0.085c0,0.086,0.071,0.113,0.227,0.113c0.214,0,0.54-0.027,0.823-0.027
	c0.299-0.015,0.54-0.015,0.568-0.015c0.213,0,0.554,0.015,1.107,0.042c0.553,0.015,1.334,0.043,2.398,0.043
	c0.554,0,0.667,0,0.767-0.369c0.07-0.298,0.185-1.263,0.185-1.377c0-0.099,0-0.213-0.085-0.213c-0.071,0-0.1,0.058-0.128,0.213
	c-0.1,0.582-0.27,0.866-0.639,1.022s-0.993,0.156-1.363,0.156c-1.391,0-1.604-0.185-1.646-1.164c-0.014-0.298,0-1.944,0-2.427V7.9
	c0-0.058,0.029-0.1,0.1-0.1c0.241,0,1.647,0.028,2.03,0.07c0.554,0.058,0.681,0.299,0.738,0.497
	c0.057,0.185,0.057,0.326,0.057,0.469c0,0.07,0.028,0.128,0.099,0.128c0.1,0,0.1-0.157,0.1-0.271c0-0.1,0.028-0.624,0.057-0.908
	c0.043-0.468,0.113-0.709,0.113-0.795c0-0.084-0.028-0.113-0.07-0.113c-0.057,0-0.113,0.071-0.213,0.185
	c-0.128,0.142-0.326,0.17-0.667,0.198c-0.326,0.028-2.072,0.028-2.256,0.028c-0.072,0-0.087-0.042-0.087-0.142V3.23
	c0-0.1,0.029-0.143,0.087-0.143c0.155,0,1.702,0.015,1.943,0.043c0.767,0.085,0.908,0.256,1.008,0.482
	c0.071,0.171,0.085,0.412,0.085,0.511c0,0.114,0.028,0.185,0.113,0.185c0.057,0,0.085-0.085,0.1-0.155
	c0.028-0.171,0.057-0.795,0.071-0.938c0.042-0.397,0.113-0.567,0.113-0.667c0-0.07-0.015-0.128-0.057-0.128
	c-0.071,0-0.128,0.058-0.199,0.07c-0.113,0.029-0.34,0.058-0.609,0.072c-0.327,0.015-3.151,0.015-3.251,0.015l-0.582-0.029
	c-0.313-0.015-0.695-0.015-1.021-0.015c-0.156,0-0.228,0.029-0.228,0.114c0,0.057,0.057,0.085,0.113,0.085
	c0.128,0,0.369,0.015,0.482,0.043c0.47,0.1,0.582,0.326,0.611,0.809c0.027,0.454,0.027,0.852,0.027,3.065V9.149z M67.401,56.393
	c0-0.144,0.057-0.199,0.17-0.199c0.427,0,1.846,0,2.214,0.056c0.682,0.086,1.392,0.171,2.356,0.824
	c2.186,1.504,2.754,3.975,2.754,5.677c0,3.209-2.47,4.031-4.002,4.031c-0.512,0-1.732-0.057-2.499-0.426
	c-0.88-0.426-0.88-0.824-0.965-2.215c-0.028-0.425-0.028-3.944-0.028-6.131V56.393z M67.401,47.394c0-0.17,0.085-0.256,0.341-0.313
	c0.454-0.114,1.051-0.142,1.362-0.142c2.782,0,3.832,2.526,3.832,4.883c0,1.163-0.426,2.185-1.021,2.867
	c-0.596,0.682-0.993,0.737-2.583,0.737c-1.051,0-1.562-0.086-1.732-0.113c-0.142-0.057-0.198-0.114-0.198-0.312V47.394z
	 M65.131,59.372c0,2.726,0,4.969-0.142,6.159c-0.114,0.824-0.257,1.449-0.824,1.563c-0.256,0.057-0.596,0.113-0.852,0.113
	c-0.17,0-0.227,0.085-0.227,0.171c0,0.171,0.141,0.228,0.454,0.228c0.426,0,1.079-0.057,1.646-0.057
	c0.597-0.03,1.079-0.03,1.136-0.03c0.114,0,0.908,0.03,1.731,0.087c0.824,0.027,1.731,0.084,2.044,0.084
	c4.854,0,7.239-3.15,7.239-6.188c0-3.32-2.811-5.336-4.911-5.99c1.334-1.39,2.668-2.781,2.668-5.108
	c0-1.419-1.021-4.259-5.677-4.259c-1.306,0-2.413,0.086-3.095,0.086c-0.142,0-1.931-0.086-3.207-0.086
	c-0.313,0-0.454,0.058-0.454,0.229c0,0.113,0.113,0.17,0.227,0.17c0.256,0,0.738,0.028,0.965,0.085
	c0.938,0.198,1.164,0.653,1.221,1.618c0.058,0.908,0.058,1.703,0.058,6.131V59.372z M84.098,54.376c0-4.428,0-5.223,0.057-6.131
	c0.057-0.994,0.283-1.477,1.05-1.618c0.342-0.057,0.511-0.085,0.71-0.085c0.114,0,0.227-0.057,0.227-0.17
	c0-0.171-0.142-0.229-0.454-0.229c-0.852,0-2.64,0.086-2.781,0.086c-0.143,0-1.931-0.086-2.867-0.086
	c-0.313,0-0.454,0.058-0.454,0.229c0,0.113,0.113,0.17,0.227,0.17c0.199,0,0.567,0.028,0.88,0.113
	c0.625,0.142,0.908,0.625,0.965,1.59c0.058,0.908,0.058,1.703,0.058,6.131v4.996c0,2.726,0,4.969-0.142,6.159
	c-0.114,0.824-0.256,1.449-0.823,1.563c-0.256,0.057-0.597,0.113-0.853,0.113c-0.17,0-0.227,0.085-0.227,0.171
	c0,0.171,0.142,0.228,0.454,0.228c0.852,0,2.64-0.087,2.782-0.087c0.142,0,1.93,0.087,3.491,0.087c0.313,0,0.454-0.087,0.454-0.228
	c0-0.086-0.057-0.171-0.228-0.171c-0.255,0-0.88-0.057-1.277-0.113c-0.851-0.113-1.021-0.738-1.106-1.563
	c-0.142-1.19-0.142-3.434-0.142-6.159V54.376z M92.693,50.146c0.908,1.022,4.111,4.599,7.398,8.146
	c3.004,3.237,7.085,7.409,7.396,7.693c1.508,1.505,1.852,1.817,2.08,1.817c0.201,0,0.258-0.143,0.258-2.017l0.057-16.634
	c0-1.703,0.113-2.328,1.051-2.526c0.34-0.085,0.54-0.085,0.682-0.085c0.198,0,0.312-0.085,0.312-0.199
	c0-0.17-0.199-0.199-0.511-0.199c-1.164,0-2.104,0.086-2.42,0.086c-0.314,0-1.679-0.086-2.953-0.086
	c-0.341,0-0.566,0.029-0.566,0.199c0,0.114,0.028,0.199,0.226,0.199c0.229,0,0.879,0.028,1.39,0.142
	c0.878,0.228,1.076,0.852,1.105,2.697l0.313,14.42c-0.908-0.937-3.997-4.399-6.804-7.408c-4.363-4.685-8.586-9.255-9.013-9.737
	c-0.286-0.283-0.772-0.908-1.002-0.908c-0.228,0-0.313,0.313-0.313,1.419l-0.029,16.267c0,2.582-0.142,3.405-0.852,3.604
	c-0.426,0.144-0.936,0.171-1.164,0.171c-0.142,0-0.227,0.058-0.227,0.171c0,0.197,0.17,0.228,0.455,0.228
	c1.277,0,2.474-0.087,2.731-0.087c0.257,0,1.394,0.087,3.01,0.087c0.34,0,0.51-0.057,0.51-0.228c0-0.113-0.085-0.171-0.227-0.171
	c-0.256,0-0.879-0.027-1.417-0.171c-0.765-0.226-1.049-0.965-1.105-3.292L92.693,50.146z M130.306,65.19
	c0,0.482-0.199,0.794-0.567,0.993c-0.737,0.426-2.214,0.596-3.236,0.596c-2.61,0-5.194-0.852-7.437-3.037
	c-0.994-0.965-3.01-3.86-3.01-7.864c0-3.32,1.164-5.904,2.812-7.21c2.156-1.702,4.286-1.873,6.073-1.873
	c3.663,0,5.962,1.221,6.671,2.3c0.427,0.682,0.568,1.476,0.596,1.874c0.028,0.254,0.058,0.425,0.199,0.425
	c0.199,0,0.256-0.142,0.256-0.596c0-2.839,0.199-3.634,0.199-4.03c0-0.114-0.057-0.228-0.341-0.257
	c-0.71-0.027-1.704-0.142-2.3-0.283c-0.539-0.113-2.554-0.482-4.344-0.482c-2.185,0-4.995,0.198-7.55,1.788
	c-2.526,1.59-4.74,4.797-4.74,9.34c0,3.548,1.646,6.585,3.378,8.089c3.15,2.754,7.182,3.038,9.339,3.038
	c1.646,0,4.202-0.313,6.019-1.276c0.34-0.199,0.368-0.257,0.368-1.533v-3.18c0-1.192,0-2.044,0.057-2.953
	c0.058-0.992,0.284-1.476,1.051-1.617c0.34-0.058,0.512-0.085,0.709-0.085c0.113,0,0.228-0.058,0.228-0.171
	c0-0.171-0.141-0.228-0.454-0.228c-0.852,0-2.64,0.086-2.782,0.086c-0.142,0-1.93-0.086-3.207-0.086
	c-0.313,0-0.455,0.057-0.455,0.228c0,0.113,0.114,0.171,0.228,0.171c0.255,0,0.738,0.027,0.966,0.085
	c1.135,0.312,1.276,0.625,1.276,2.924V65.19z M139.192,59.372c0,2.726,0,4.969-0.143,6.159c-0.113,0.824-0.256,1.449-0.822,1.563
	c-0.257,0.057-0.598,0.113-0.854,0.113c-0.169,0-0.227,0.085-0.227,0.171c0,0.171,0.142,0.228,0.454,0.228
	c0.425,0,1.079-0.057,1.647-0.057c0.596-0.03,1.078-0.03,1.135-0.03c0.426,0,1.107,0.03,2.215,0.087
	c1.106,0.027,2.667,0.084,4.797,0.084c1.106,0,1.335,0,1.532-0.738c0.143-0.596,0.37-2.525,0.37-2.754c0-0.197,0-0.426-0.171-0.426
	c-0.143,0-0.199,0.114-0.256,0.426c-0.198,1.165-0.539,1.732-1.277,2.045c-0.737,0.312-1.987,0.312-2.725,0.312
	c-2.781,0-3.208-0.369-3.293-2.327c-0.028-0.596,0-3.89,0-4.854v-2.497c0-0.114,0.057-0.199,0.198-0.199
	c0.482,0,3.294,0.056,4.061,0.142c1.105,0.114,1.362,0.597,1.476,0.994c0.113,0.369,0.113,0.652,0.113,0.937
	c0,0.142,0.056,0.255,0.198,0.255c0.199,0,0.199-0.313,0.199-0.539c0-0.198,0.057-1.249,0.114-1.816
	c0.083-0.937,0.226-1.42,0.226-1.59s-0.056-0.228-0.143-0.228c-0.112,0-0.227,0.143-0.425,0.369
	c-0.255,0.284-0.653,0.342-1.334,0.397c-0.653,0.058-4.145,0.058-4.515,0.058c-0.141,0-0.169-0.086-0.169-0.283v-7.836
	c0-0.199,0.057-0.284,0.169-0.284c0.313,0,3.407,0.029,3.891,0.085c1.532,0.171,1.816,0.512,2.015,0.966
	c0.142,0.341,0.171,0.822,0.171,1.021c0,0.228,0.057,0.369,0.227,0.369c0.113,0,0.171-0.17,0.199-0.312
	c0.057-0.342,0.115-1.59,0.142-1.874c0.085-0.795,0.228-1.135,0.228-1.334c0-0.143-0.028-0.255-0.114-0.255
	c-0.14,0-0.255,0.112-0.396,0.142c-0.228,0.057-0.682,0.113-1.221,0.142c-0.653,0.028-6.302,0.028-6.501,0.028l-1.164-0.057
	c-0.624-0.029-1.391-0.029-2.044-0.029c-0.313,0-0.453,0.058-0.453,0.229c0,0.113,0.113,0.17,0.226,0.17
	c0.257,0,0.739,0.028,0.966,0.085c0.936,0.198,1.164,0.653,1.221,1.618c0.058,0.908,0.058,1.703,0.058,6.131V59.372z
	 M155.766,50.146c0.908,1.022,4.11,4.599,7.397,8.146c3.004,3.237,7.085,7.409,7.397,7.693c1.508,1.505,1.851,1.817,2.079,1.817
	c0.201,0,0.259-0.143,0.259-2.017l0.057-16.634c0-1.703,0.114-2.328,1.051-2.526c0.34-0.085,0.539-0.085,0.681-0.085
	c0.199,0,0.313-0.085,0.313-0.199c0-0.17-0.199-0.199-0.512-0.199c-1.164,0-2.104,0.086-2.419,0.086s-1.679-0.086-2.953-0.086
	c-0.341,0-0.567,0.029-0.567,0.199c0,0.114,0.028,0.199,0.227,0.199c0.227,0,0.88,0.028,1.389,0.142
	c0.879,0.228,1.076,0.852,1.105,2.697l0.314,14.42c-0.909-0.937-3.999-4.399-6.804-7.408c-4.364-4.685-8.587-9.255-9.014-9.737
	c-0.286-0.283-0.773-0.908-1.002-0.908s-0.313,0.313-0.313,1.419l-0.029,16.267c0,2.582-0.143,3.405-0.852,3.604
	c-0.427,0.144-0.938,0.171-1.165,0.171c-0.141,0-0.227,0.058-0.227,0.171c0,0.197,0.171,0.228,0.454,0.228
	c1.277,0,2.476-0.087,2.732-0.087c0.258,0,1.395,0.087,3.01,0.087c0.34,0,0.51-0.057,0.51-0.228c0-0.113-0.085-0.171-0.228-0.171
	c-0.254,0-0.876-0.027-1.416-0.171c-0.766-0.226-1.048-0.965-1.105-3.292L155.766,50.146z M29.806,47.365l3.569,0.057
	c2.721,0.057,3.4,0.71,3.485,1.562l0.029,0.312c0.029,0.397,0.087,0.482,0.231,0.482c0.116,0,0.204-0.113,0.204-0.369
	c0-0.312,0.086-2.271,0.086-3.122c0-0.17,0-0.341-0.145-0.341c-0.116,0-0.377,0.085-0.803,0.143
	c-0.453,0.085-1.104,0.142-2.012,0.142H23.815c-0.34,0-1.419-0.057-2.242-0.142c-0.767-0.058-1.051-0.341-1.249-0.341
	c-0.114,0-0.228,0.369-0.284,0.539c-0.057,0.227-0.625,2.668-0.625,2.952c0,0.17,0.057,0.256,0.143,0.256
	c0.113,0,0.199-0.057,0.283-0.284c0.086-0.198,0.172-0.397,0.483-0.879c0.454-0.682,1.136-0.881,2.896-0.909l4.201-0.057v12.007
	c0,2.726,0,4.969-0.143,6.159c-0.112,0.824-0.255,1.449-0.823,1.563c-0.255,0.057-0.596,0.113-0.852,0.113
	c-0.17,0-0.227,0.085-0.227,0.171c0,0.171,0.143,0.228,0.454,0.228c0.852,0,2.64-0.087,2.782-0.087c0.142,0,1.929,0.087,3.487,0.087
	c0.312,0,0.453-0.087,0.453-0.228c0-0.086-0.057-0.171-0.226-0.171c-0.256,0-0.879-0.057-1.275-0.113
	c-0.851-0.113-1.021-0.738-1.105-1.563c-0.142-1.19-0.142-3.434-0.142-6.159V47.365z M41.755,58.519c0,4.145,1.079,6.132,2.47,7.466
	c2.016,1.9,4.883,2.015,5.848,2.015c1.676,0,3.804-0.284,5.848-2.101c2.271-2.015,2.611-5.423,2.611-8.487v-3.038
	c0-4.428,0-5.223,0.058-6.131c0.057-0.993,0.283-1.448,1.051-1.618c0.339-0.057,0.511-0.085,0.709-0.085
	c0.113,0,0.228-0.057,0.228-0.17c0-0.171-0.143-0.229-0.455-0.229c-0.852,0-2.186,0.086-2.385,0.086
	c-0.17,0-1.731-0.086-3.009-0.086c-0.313,0-0.453,0.058-0.453,0.229c0,0.113,0.112,0.17,0.226,0.17c0.257,0,0.739,0.028,0.966,0.085
	c0.937,0.198,1.164,0.653,1.221,1.618c0.057,0.908,0.057,1.703,0.057,6.131v3.549c0,2.924-0.341,5.337-1.646,6.954
	c-1.022,1.222-2.725,2.045-4.457,2.045c-1.617,0-2.895-0.256-4.286-1.563c-1.221-1.163-2.129-2.923-2.129-7.011v-3.975
	c0-4.428,0-5.223,0.057-6.131c0.057-0.993,0.284-1.504,1.051-1.618c0.341-0.057,0.511-0.085,0.709-0.085
	c0.114,0,0.228-0.057,0.228-0.17c0-0.171-0.142-0.229-0.454-0.229c-0.852,0-2.555,0.086-2.811,0.086
	c-0.255,0-1.987-0.086-3.265-0.086c-0.313,0-0.454,0.058-0.454,0.229c0,0.113,0.114,0.17,0.228,0.17
	c0.256,0,0.738,0.028,0.965,0.085c0.938,0.198,1.164,0.653,1.221,1.618c0.057,0.908,0.057,1.703,0.057,6.131V58.519z M51.902,53.502
	c0-0.767-0.568-1.248-1.306-1.248c-0.71,0-1.136,0.539-1.136,1.22c0,0.88,0.71,1.221,1.221,1.221
	C51.221,54.694,51.902,54.354,51.902,53.502 M51.902,47.797c0-0.767-0.568-1.249-1.306-1.249c-0.71,0-1.136,0.54-1.136,1.221
	c0,0.88,0.71,1.22,1.221,1.22C51.221,48.988,51.902,48.648,51.902,47.797 M106.209,30.812c2.97-0.814,4.97-3.294,4.97-6.658
	c0-1.547-0.817-2.86-1.46-3.473c-0.466-0.438-1.779-1.664-5.427-1.664c-1.344,0-3.82,0.09-4.593,0.09
	c-0.335,0-1.935-0.085-3.215-0.085c-0.313,0-0.455,0.057-0.455,0.228c0,0.114,0.114,0.171,0.228,0.171
	c0.257,0,0.739,0.028,0.968,0.085c0.938,0.199,1.165,0.654,1.223,1.621c0.057,0.91,0.057,1.708,0.057,6.145v5.007
	c0,2.731,0,4.978-0.141,6.172c-0.114,0.825-0.258,1.452-0.826,1.564c-0.257,0.058-0.598,0.114-0.854,0.114
	c-0.17,0-0.228,0.085-0.228,0.17c0,0.172,0.143,0.229,0.455,0.229c0.854,0,2.646-0.085,2.674-0.085c0.142,0,1.935,0.085,3.499,0.085
	c0.313,0,0.455-0.085,0.455-0.229c0-0.085-0.057-0.17-0.229-0.17c-0.255,0-0.881-0.057-1.278-0.114
	c-0.854-0.112-1.024-0.739-1.11-1.564c-0.143-1.194-0.143-3.44-0.143-6.172v-0.683c0-0.143,0.057-0.228,0.2-0.228l2.76,0.042
	c0.171,0,0.321,0.067,0.376,0.186c0.432,0.944,1.029,2.54,1.89,4.303c1.175,2.409,1.378,3.476,2.602,4.13
	c0.739,0.399,1.515,0.499,3.107,0.499h1.371c0.512,0,0.684-0.057,0.684-0.229c0-0.085-0.114-0.173-0.257-0.17
	c-0.281,0.008-0.753-0.071-1.292-0.167c-0.462-0.082-1.808-0.408-2.639-1.966C108.541,36.046,107.344,33.212,106.209,30.812
	 M4.476,31.418c0,4.155,1.081,6.147,2.477,7.485c2.02,1.906,4.895,2.021,5.862,2.021c1.679,0,3.813-0.284,5.863-2.105
	c2.277-2.021,2.618-5.438,2.618-8.511v-3.045c0-4.44,0-5.237,0.058-6.147c0.057-0.997,0.284-1.451,1.052-1.622
	c0.343-0.058,0.514-0.086,0.713-0.086c0.113,0,0.228-0.057,0.228-0.171c0-0.171-0.143-0.228-0.456-0.228
	c-0.854,0-2.191,0.085-2.391,0.085c-0.171,0-1.736-0.085-3.017-0.085c-0.313,0-0.455,0.057-0.455,0.228
	c0,0.114,0.113,0.171,0.227,0.171c0.257,0,0.741,0.028,0.969,0.086c0.939,0.198,1.166,0.654,1.224,1.622
	c0.057,0.91,0.057,1.707,0.057,6.147v3.558c0,2.932-0.341,5.351-1.651,6.973c-1.023,1.224-2.731,2.049-4.468,2.049
	c-1.622,0-2.903-0.256-4.298-1.565c-1.224-1.167-2.134-2.931-2.134-7.029v-3.984c0-4.44,0-5.237,0.057-6.147
	c0.057-0.997,0.284-1.509,1.054-1.622c0.341-0.058,0.512-0.086,0.711-0.086c0.113,0,0.228-0.057,0.228-0.171
	c0-0.171-0.143-0.228-0.455-0.228c-0.854,0-2.562,0.085-2.818,0.085c-0.256,0-1.992-0.085-3.272-0.085
	C2.142,19.009,2,19.065,2,19.236c0,0.114,0.113,0.171,0.228,0.171c0.256,0,0.739,0.028,0.968,0.086
	c0.939,0.198,1.166,0.654,1.223,1.622c0.058,0.91,0.058,1.707,0.058,6.147V31.418z M27.707,23.021
	c0.911,1.025,4.121,4.611,7.418,8.17c3.012,3.243,7.104,7.428,7.415,7.712c1.513,1.508,1.856,1.821,2.086,1.821
	c0.202,0,0.259-0.143,0.259-2.021l0.057-16.679c0-1.708,0.114-2.334,1.054-2.532c0.341-0.086,0.54-0.086,0.684-0.086
	c0.198,0,0.313-0.086,0.313-0.199c0-0.171-0.199-0.199-0.513-0.199c-1.167,0-2.11,0.085-2.426,0.085
	c-0.316,0-1.683-0.085-2.961-0.085c-0.342,0-0.568,0.028-0.568,0.199c0,0.113,0.028,0.199,0.227,0.199
	c0.228,0,0.882,0.028,1.393,0.143c0.881,0.228,1.08,0.854,1.108,2.704l0.313,14.457c-0.91-0.938-4.007-4.411-6.82-7.428
	c-4.376-4.696-8.608-9.278-9.037-9.762c-0.286-0.285-0.774-0.911-1.004-0.911s-0.315,0.313-0.315,1.424l-0.028,16.307
	c0,2.591-0.143,3.416-0.854,3.615c-0.427,0.143-0.938,0.17-1.167,0.17c-0.142,0-0.228,0.059-0.228,0.171
	c0,0.2,0.171,0.229,0.456,0.229c1.28,0,2.481-0.086,2.739-0.086s1.397,0.086,3.018,0.086c0.341,0,0.511-0.057,0.511-0.229
	c0-0.112-0.085-0.171-0.227-0.171c-0.256,0-0.881-0.027-1.421-0.17c-0.768-0.228-1.051-0.967-1.108-3.301L27.707,23.021z
	 M53.576,27.263c0-4.44,0-5.237,0.057-6.147c0.058-0.997,0.285-1.48,1.053-1.622c0.343-0.058,0.514-0.086,0.712-0.086
	c0.114,0,0.229-0.057,0.229-0.171c0-0.171-0.144-0.228-0.456-0.228c-0.854,0-2.646,0.085-2.788,0.085
	c-0.144,0-1.937-0.085-2.875-0.085c-0.313,0-0.456,0.057-0.456,0.228c0,0.114,0.114,0.171,0.228,0.171
	c0.199,0,0.569,0.028,0.883,0.114c0.626,0.143,0.91,0.626,0.968,1.594c0.057,0.91,0.057,1.707,0.057,6.147v5.01
	c0,2.731,0,4.98-0.143,6.176c-0.113,0.825-0.256,1.451-0.824,1.565c-0.258,0.057-0.598,0.112-0.854,0.112
	c-0.171,0-0.228,0.086-0.228,0.171c0,0.172,0.142,0.229,0.455,0.229c0.854,0,2.646-0.086,2.79-0.086c0.142,0,1.935,0.086,3.5,0.086
	c0.313,0,0.454-0.086,0.454-0.229c0-0.085-0.056-0.171-0.227-0.171c-0.257,0-0.883-0.056-1.281-0.112
	c-0.854-0.114-1.024-0.74-1.109-1.565c-0.143-1.195-0.143-3.444-0.143-6.176V27.263z M162.65,21.653c0.77,0,1.254-0.569,1.254-1.309
	c0-0.712-0.542-1.139-1.226-1.139c-0.881,0-1.224,0.711-1.224,1.223C161.455,20.97,161.798,21.653,162.65,21.653 M169.952,21.653
	c0.77,0,1.253-0.569,1.253-1.309c0-0.712-0.54-1.139-1.224-1.139c-0.883,0-1.224,0.711-1.224,1.223
	C168.758,20.97,169.099,21.653,169.952,21.653 M163.043,31.104c-0.086,0-0.143-0.057-0.086-0.199l2.506-7.684
	c0.142-0.427,0.284-0.427,0.427,0l2.703,7.684c0.029,0.114,0.029,0.199-0.113,0.199H163.043z M159.06,37.395
	c-0.514,1.424-1.083,2.505-2.392,2.676c-0.228,0.028-0.625,0.056-0.826,0.056c-0.142,0-0.257,0.059-0.257,0.171
	c0,0.172,0.173,0.229,0.542,0.229c1.338,0,2.903-0.086,3.218-0.086c0.312,0,1.535,0.086,2.219,0.086
	c0.257,0,0.427-0.057,0.427-0.229c0-0.112-0.086-0.171-0.284-0.171h-0.285c-0.484,0-1.082-0.255-1.082-0.824
	c0-0.513,0.143-1.195,0.399-1.907l1.707-5.038c0.058-0.142,0.144-0.228,0.284-0.228h6.119c0.143,0,0.2,0.058,0.257,0.171
	l2.646,7.002c0.171,0.455,0,0.712-0.169,0.769c-0.114,0.028-0.2,0.085-0.2,0.199c0,0.17,0.313,0.17,0.853,0.199
	c1.965,0.057,4.042,0.057,4.47,0.057c0.312,0,0.568-0.057,0.568-0.229c0-0.142-0.113-0.171-0.284-0.171
	c-0.284,0-0.712-0.027-1.139-0.17c-0.598-0.171-1.424-0.626-2.448-3.159c-1.735-4.326-6.204-16.08-6.631-17.162
	c-0.341-0.882-0.455-1.024-0.627-1.024c-0.17,0-0.284,0.171-0.625,1.11L159.06,37.395z M63.469,22.481
	c-0.427-1.11-0.769-1.992-0.769-2.363c0-0.198,0.057-0.427,0.37-0.568c0.257-0.114,0.769-0.143,1.081-0.143
	c0.199,0,0.285-0.057,0.285-0.199s-0.257-0.199-0.769-0.199c-1.082,0-2.362,0.085-2.647,0.085c-0.341,0-1.964-0.085-3.329-0.085
	c-0.456,0-0.74,0.028-0.74,0.199c0,0.113,0.057,0.199,0.228,0.199s0.655,0,1.082,0.114c0.996,0.284,1.423,0.597,2.049,2.19
	l6.973,17.447c0.541,1.366,0.683,1.765,1.025,1.765c0.283,0,0.397-0.455,1.194-2.163c0.655-1.396,1.936-4.468,3.673-8.623
	c1.45-3.501,2.874-6.916,3.187-7.713c0.77-1.936,1.196-2.42,1.565-2.677c0.541-0.341,1.167-0.341,1.366-0.341
	c0.228,0,0.341-0.057,0.341-0.199s-0.17-0.199-0.483-0.199c-0.824,0-2.049,0.085-2.22,0.085c-0.341,0-1.651-0.085-2.789-0.085
	c-0.456,0-0.626,0.057-0.626,0.228c0,0.143,0.142,0.171,0.313,0.171c0.313,0,0.739,0,1.081,0.114
	c0.284,0.143,0.369,0.426,0.369,0.654c0,0.256-0.113,0.655-0.256,1.081c-0.625,2.05-4.439,11.982-6.091,15.797L63.469,22.481z
	 M83.183,32.272c0,2.731,0,4.98-0.143,6.176c-0.113,0.825-0.256,1.451-0.825,1.565c-0.256,0.057-0.598,0.112-0.854,0.112
	c-0.171,0-0.228,0.086-0.228,0.171c0,0.172,0.142,0.229,0.455,0.229c0.427,0,1.082-0.057,1.65-0.057
	c0.598-0.029,1.082-0.029,1.139-0.029c0.427,0,1.11,0.029,2.22,0.086c1.111,0.029,2.676,0.085,4.81,0.085
	c1.11,0,1.339,0,1.537-0.739c0.143-0.598,0.37-2.532,0.37-2.762c0-0.198,0-0.426-0.171-0.426c-0.143,0-0.199,0.113-0.256,0.426
	c-0.199,1.167-0.541,1.736-1.28,2.05c-0.74,0.313-1.992,0.313-2.732,0.313c-2.789,0-3.217-0.369-3.302-2.333
	c-0.027-0.598,0-3.899,0-4.866v-2.505c0-0.114,0.057-0.199,0.199-0.199c0.483,0,3.302,0.056,4.07,0.142
	c1.11,0.114,1.366,0.598,1.479,0.997c0.114,0.37,0.114,0.654,0.114,0.938c0,0.143,0.057,0.257,0.199,0.257
	c0.199,0,0.199-0.313,0.199-0.541c0-0.199,0.056-1.253,0.113-1.822c0.086-0.939,0.229-1.422,0.229-1.593s-0.058-0.229-0.143-0.229
	c-0.114,0-0.228,0.142-0.427,0.37c-0.257,0.285-0.654,0.342-1.338,0.398c-0.654,0.057-4.155,0.057-4.525,0.057
	c-0.143,0-0.171-0.085-0.171-0.284v-7.854c0-0.199,0.057-0.286,0.171-0.286c0.313,0,3.415,0.029,3.899,0.087
	c1.536,0.17,1.821,0.512,2.02,0.967c0.144,0.342,0.172,0.825,0.172,1.024c0,0.229,0.056,0.37,0.228,0.37
	c0.114,0,0.171-0.171,0.198-0.313c0.058-0.342,0.115-1.595,0.144-1.879c0.085-0.797,0.228-1.139,0.228-1.338
	c0-0.142-0.028-0.256-0.114-0.256c-0.142,0-0.257,0.114-0.398,0.143c-0.229,0.057-0.683,0.113-1.224,0.142
	c-0.654,0.028-6.318,0.028-6.518,0.028l-1.166-0.057c-0.628-0.028-1.396-0.028-2.051-0.028c-0.313,0-0.455,0.057-0.455,0.228
	c0,0.114,0.114,0.171,0.229,0.171c0.256,0,0.739,0.028,0.967,0.086c0.939,0.198,1.167,0.654,1.224,1.622
	c0.058,0.91,0.058,1.707,0.058,6.147V32.272z M120.217,40.924c1.535,0,3.071-0.342,4.296-1.195c1.964-1.395,2.419-3.558,2.419-4.725
	c0-2.276-0.798-4.041-4.155-6.688l-0.797-0.627c-2.731-2.134-3.472-3.159-3.472-4.781c0-2.077,1.537-3.302,3.5-3.302
	c2.619,0,3.388,1.195,3.559,1.509c0.17,0.313,0.341,1.081,0.37,1.423c0.027,0.228,0.057,0.37,0.228,0.37
	c0.143,0,0.199-0.2,0.199-0.654c0-1.937,0.113-2.875,0.113-3.018s-0.058-0.199-0.285-0.199s-0.455-0.028-0.995-0.142
	c-0.712-0.171-1.538-0.285-2.647-0.285c-3.614,0-5.891,2.077-5.891,5.123c0,1.936,0.683,3.7,3.699,6.176l1.28,1.054
	c2.448,2.021,3.273,3.159,3.273,5.122c0,1.821-1.338,3.786-4.07,3.786c-1.906,0-3.785-0.797-4.212-2.902
	c-0.085-0.399-0.085-0.798-0.085-1.054c0-0.228-0.029-0.313-0.199-0.313c-0.143,0-0.199,0.143-0.228,0.455
	c-0.028,0.456-0.143,1.594-0.143,3.018c0,0.768,0.029,0.882,0.427,1.081C117.568,40.725,118.878,40.924,120.217,40.924
	 M135.028,27.263c0-4.44,0-5.237,0.058-6.147c0.058-0.997,0.285-1.48,1.055-1.622c0.34-0.058,0.511-0.086,0.71-0.086
	c0.114,0,0.228-0.057,0.228-0.171c0-0.171-0.142-0.228-0.456-0.228c-0.853,0-2.646,0.085-2.788,0.085
	c-0.142,0-1.936-0.085-2.874-0.085c-0.313,0-0.456,0.057-0.456,0.228c0,0.114,0.114,0.171,0.228,0.171
	c0.2,0,0.569,0.028,0.883,0.114c0.627,0.143,0.91,0.626,0.968,1.594c0.057,0.91,0.057,1.707,0.057,6.147v5.01
	c0,2.731,0,4.98-0.143,6.176c-0.114,0.825-0.255,1.451-0.826,1.565c-0.255,0.057-0.597,0.112-0.854,0.112
	c-0.17,0-0.227,0.086-0.227,0.171c0,0.172,0.142,0.229,0.456,0.229c0.853,0,2.646-0.086,2.788-0.086
	c0.143,0,1.936,0.086,3.501,0.086c0.313,0,0.455-0.086,0.455-0.229c0-0.085-0.058-0.171-0.228-0.171
	c-0.257,0-0.882-0.056-1.281-0.112c-0.853-0.114-1.023-0.74-1.11-1.565c-0.143-1.195-0.143-3.444-0.143-6.176V27.263z
	 M149.724,20.232l3.579,0.057c2.726,0.058,3.409,0.712,3.495,1.565l0.026,0.313c0.031,0.398,0.09,0.483,0.233,0.483
	c0.116,0,0.204-0.113,0.204-0.369c0-0.313,0.087-2.277,0.087-3.131c0-0.171,0-0.342-0.146-0.342c-0.115,0-0.379,0.086-0.805,0.142
	c-0.454,0.086-1.106,0.143-2.016,0.143h-10.666c-0.341,0-1.423-0.057-2.246-0.143c-0.77-0.056-1.055-0.341-1.254-0.341
	c-0.113,0-0.228,0.37-0.286,0.541c-0.056,0.228-0.625,2.675-0.625,2.96c0,0.171,0.057,0.256,0.142,0.256
	c0.114,0,0.2-0.057,0.286-0.284c0.086-0.2,0.172-0.398,0.483-0.882c0.455-0.684,1.139-0.884,2.903-0.912l4.212-0.057v12.04
	c0,2.731,0,4.98-0.143,6.176c-0.114,0.825-0.256,1.451-0.824,1.565c-0.258,0.057-0.599,0.112-0.855,0.112
	c-0.171,0-0.227,0.086-0.227,0.171c0,0.172,0.143,0.229,0.455,0.229c0.854,0,2.646-0.086,2.789-0.086s1.934,0.086,3.496,0.086
	c0.313,0,0.454-0.086,0.454-0.229c0-0.085-0.057-0.171-0.227-0.171c-0.256,0-0.88-0.056-1.278-0.112
	c-0.852-0.114-1.022-0.74-1.106-1.565c-0.143-1.195-0.143-3.444-0.143-6.176V20.232z M184.798,20.232l3.581,0.057
	c2.726,0.058,3.407,0.712,3.493,1.565l0.028,0.313c0.029,0.398,0.087,0.483,0.233,0.483c0.116,0,0.203-0.113,0.203-0.369
	c0-0.313,0.087-2.277,0.087-3.131c0-0.171,0-0.342-0.145-0.342c-0.116,0-0.379,0.086-0.805,0.142
	c-0.455,0.086-1.108,0.143-2.017,0.143h-10.666c-0.341,0-1.422-0.057-2.246-0.143c-0.77-0.056-1.055-0.341-1.253-0.341
	c-0.116,0-0.229,0.37-0.286,0.541c-0.057,0.228-0.625,2.675-0.625,2.96c0,0.171,0.056,0.256,0.141,0.256
	c0.115,0,0.2-0.057,0.286-0.284c0.085-0.2,0.172-0.398,0.484-0.882c0.455-0.684,1.138-0.884,2.902-0.912l4.212-0.057v12.04
	c0,2.731,0,4.98-0.143,6.176c-0.113,0.825-0.255,1.451-0.826,1.565c-0.255,0.057-0.597,0.112-0.854,0.112
	c-0.17,0-0.228,0.086-0.228,0.171c0,0.172,0.144,0.229,0.457,0.229c0.853,0,2.646-0.086,2.788-0.086
	c0.144,0,1.935,0.086,3.496,0.086c0.313,0,0.454-0.086,0.454-0.229c0-0.085-0.056-0.171-0.226-0.171c-0.256,0-0.88-0.056-1.28-0.112
	c-0.852-0.114-1.022-0.74-1.105-1.565c-0.144-1.195-0.144-3.444-0.144-6.176V20.232z M102.913,19.932
	c0.878-0.01,2.808-0.156,4.354,1.42c1.548,1.576,1.636,3.531,1.636,4.495c0,2.685-2.206,4.695-5.037,4.695
	c-1.17,0-2.461-0.199-2.887-0.455c-0.144-0.085-0.2-0.199-0.2-0.341v-9.303c0-0.171,0.086-0.284,0.229-0.341
	C101.292,20.017,102.06,19.941,102.913,19.932"/>
</svg>
